<svg xmlns="http://www.w3.org/2000/svg" version="1.1" width="500" height="500" viewBox="0 20 475 475">
<path d="M0 0 C3.29220838 0.37494595 6.06326045 1.46195416 9.109375 2.74023438 C9.75543701 3.00868164 10.40149902 3.27712891 11.06713867 3.55371094 C15.63287396 5.49132413 20.02401695 7.70307318 24.421875 9.99023438 C34.55996198 15.24550845 45.28665646 19.03001823 55.96044922 23.03955078 C59.65874816 24.44971005 63.32388197 25.93099404 66.98608398 27.43188477 C99.88512275 40.88233872 133.97522006 47.39604178 169.21459961 51.11401367 C175.54729992 51.79444543 181.78801938 52.6299851 188.046875 53.80273438 C195.66189477 55.2183758 203.25901732 55.71065322 210.984375 56.17773438 C230.88989876 57.42898436 256.80255049 59.54755233 271.4765625 74.68164062 C279.41694895 83.83261058 283.1537118 93.95710885 286.99609375 105.27148438 C288.02724942 108.36321141 288.02724942 108.36321141 290.109375 111.24023438 C291.76863567 120.50704869 292.55736839 131.34804089 289.109375 140.24023438 C288.62210937 140.79582031 288.13484375 141.35140625 287.6328125 141.92382812 C285.49488471 145.17457474 285.11738422 148.59109643 284.546875 152.36523438 C283.3672284 159.98238097 283.3672284 159.98238097 281.109375 162.24023438 C279.109375 162.11523438 279.109375 162.11523438 277.109375 161.24023438 C275.984375 159.18554688 275.984375 159.18554688 275.109375 157.24023438 C274.91601562 158.29984375 274.72265625 159.35945312 274.5234375 160.45117188 C274.26082436 161.8392699 273.99778114 163.22728661 273.734375 164.61523438 C273.60804688 165.31390625 273.48171875 166.01257813 273.3515625 166.73242188 C272.3359375 172.01367188 272.3359375 172.01367188 270.109375 174.24023438 C268.109375 174.10742188 268.109375 174.10742188 266.109375 173.24023438 C264.984375 171.56054687 264.984375 171.56054687 264.109375 169.36523438 C263.78324219 168.56085938 263.45710938 167.75648438 263.12109375 166.92773438 C261.03680744 161.39109738 258.98035636 155.85317844 257.109375 150.24023438 C256.449375 150.24023438 255.789375 150.24023438 255.109375 150.24023438 C255.14417969 151.49578125 255.17898438 152.75132812 255.21484375 154.04492188 C255.59607974 173.52880386 255.59607974 173.52880386 252.109375 179.24023438 C250 180.48632813 250 180.48632813 248.109375 181.24023438 C244.14933908 177.97279733 243.36826843 175.29194007 242.484375 170.30273438 C241.70897107 166.03801274 240.8717756 162.20940154 239.109375 158.24023438 C238.449375 158.24023438 237.789375 158.24023438 237.109375 158.24023438 C237.14417969 159.44679687 237.17898438 160.65335938 237.21484375 161.89648438 C237.24300484 163.51105366 237.27030249 165.12563816 237.296875 166.74023438 C237.32201172 167.53171875 237.34714844 168.32320312 237.37304688 169.13867188 C237.44338818 174.85976506 236.52700198 179.0330378 234.109375 184.24023438 C231.921875 185.74023438 231.921875 185.74023438 230.109375 186.24023438 C226.78562855 183.32598441 225.51320164 181.22454528 224.546875 176.92773438 C223.42887311 172.41342403 222.26443156 168.37075944 220.109375 164.24023438 C219.119375 163.91023437 218.129375 163.58023438 217.109375 163.24023438 C217.26792969 163.73652344 217.42648437 164.2328125 217.58984375 164.74414062 C219.89994152 175.84303143 218.16737298 186.82349848 214.109375 197.24023438 C212.789375 197.24023438 211.469375 197.24023438 210.109375 197.24023438 C207.39143564 194.50001356 206.55746845 191.8657291 205.79296875 188.14257812 C205.48262695 186.69334961 205.48262695 186.69334961 205.16601562 185.21484375 C204.96169922 184.21259766 204.75738281 183.21035156 204.546875 182.17773438 C204.1346749 180.1856466 203.71694158 178.19469358 203.29296875 176.20507812 C203.11306396 175.32456787 202.93315918 174.44405762 202.74780273 173.53686523 C202.1688046 170.99182501 202.1688046 170.99182501 200.109375 168.24023438 C200.13257813 169.06265625 200.15578125 169.88507813 200.1796875 170.73242188 C200.31807681 179.29278936 200.25632315 187.5561834 196.109375 195.24023438 C194.459375 195.24023438 192.809375 195.24023438 191.109375 195.24023438 C189.48579364 191.55818378 187.95161948 187.88594562 186.609375 184.09179688 C186.361875 183.39699219 186.114375 182.7021875 185.859375 181.98632812 C185.35200201 180.55141388 184.85220079 179.11380347 184.359375 177.67382812 C183.69500167 175.82950007 182.9101862 174.0295469 182.109375 172.24023438 C181.119375 171.91023437 180.129375 171.58023438 179.109375 171.24023438 C179.28855469 172.078125 179.46773438 172.91601562 179.65234375 173.77929688 C180.85227536 182.86595844 178.92111359 192.47936568 174.109375 200.24023438 C173.109375 201.24023438 173.109375 201.24023438 170.609375 201.36523438 C168.109375 201.24023438 168.109375 201.24023438 167.109375 200.24023438 C166.80767829 198.11939615 166.5438231 195.99314234 166.296875 193.86523438 C165.05419225 183.33156819 165.05419225 183.33156819 160.109375 174.24023438 C159.93921875 175.19542969 159.7690625 176.150625 159.59375 177.13476562 C155.75968175 197.58992763 155.75968175 197.58992763 151.109375 202.24023438 C148.546875 201.99023438 148.546875 201.99023438 146.109375 201.24023438 C145.01417561 199.0498356 144.87624928 197.5984453 144.6796875 195.16992188 C144.56947266 193.94789063 144.56947266 193.94789063 144.45703125 192.70117188 C144.31065359 191.00113656 144.16986276 189.30060927 144.03515625 187.59960938 C143.5169454 181.9959056 142.30218323 177.42868225 140.109375 172.24023438 C140.07199219 173.24183594 140.03460938 174.2434375 139.99609375 175.27539062 C139.48994546 186.37440003 137.86992462 192.97738381 130.109375 201.24023438 C128.459375 200.91023437 126.809375 200.58023438 125.109375 200.24023438 C124.00144532 194.94294559 124.02751316 189.86855756 124.109375 184.49023438 C124.13483183 182.78717221 124.15588272 181.08403671 124.171875 179.38085938 C124.18927734 178.2598584 124.18927734 178.2598584 124.20703125 177.11621094 C124.23001739 175.14809303 124.23001739 175.14809303 123.109375 173.24023438 C122.93921875 173.88089844 122.7690625 174.5215625 122.59375 175.18164062 C121.04630222 180.70471221 119.5565448 185.61117778 116.109375 190.24023438 C112.921875 191.24023438 112.921875 191.24023438 110.109375 191.24023438 C108.08149005 189.21234943 108.74080256 185.16415456 108.609375 182.36523438 C108.38410162 176.72247432 108.38410162 176.72247432 107.109375 171.24023438 C98.29704281 170.46124368 90.83939648 173.3161636 82.671875 176.24023438 C81.23360659 176.74385176 79.79521056 177.24710485 78.35668945 177.75 C70.02244189 180.69177018 61.80339574 183.80897384 53.85180664 187.68945312 C43.81359042 192.52829331 34.67531228 193.58652163 23.609375 193.24023438 C12.82719747 193.06623702 2.84497421 193.81643151 -7.71923828 195.85107422 C-11.48590508 196.52614358 -15.27940045 196.97469879 -19.078125 197.42773438 C-19.76874023 197.5113623 -20.45935547 197.59499023 -21.17089844 197.68115234 C-22.74380314 197.87034031 -24.3171606 198.05575924 -25.890625 198.24023438 C-26.220625 199.23023438 -26.550625 200.22023438 -26.890625 201.24023438 C-26.890625 200.58023438 -26.890625 199.92023438 -26.890625 199.24023438 C-29.860625 200.23023438 -32.830625 201.22023438 -35.890625 202.24023438 C-31.96015283 203.22285242 -28.62136541 203.45571073 -24.58203125 203.59960938 C-23.1082569 203.65950775 -21.63454379 203.72092797 -20.16088867 203.78369141 C-19.39215424 203.81642151 -18.6234198 203.84915161 -17.83139038 203.88287354 C9.48416938 205.11596613 33.05367205 212.38163902 58.109375 223.24023438 C59.3573714 223.74457792 60.60612324 224.24705462 61.85546875 224.74804688 C75.84059138 230.45889326 87.51642877 238.41680328 98.71875 248.50195312 C99.50765625 249.07558594 100.2965625 249.64921875 101.109375 250.24023438 C104.6869614 249.04770558 104.80118057 248.38032244 106.484375 245.17773438 C107.76953125 242.98632813 107.76953125 242.98632813 109.109375 241.24023438 C111.921875 240.74023438 111.921875 240.74023438 114.109375 241.24023438 C115.5138931 244.04927058 115.24146754 246.42137946 115.234375 249.55273438 C115.23695313 250.68324219 115.23953125 251.81375 115.2421875 252.97851562 C115.12478551 255.86177033 114.77150488 258.43931987 114.109375 261.24023438 C114.769375 261.57023437 115.429375 261.90023438 116.109375 262.24023438 C117.35690655 259.78840257 118.53709432 257.31842549 119.6953125 254.82226562 C120.29133876 253.56559963 120.8877011 252.30909299 121.484375 251.05273438 C121.92136719 250.09077148 121.92136719 250.09077148 122.3671875 249.109375 C124.59382748 244.48519066 124.59382748 244.48519066 127.23046875 243.23242188 C129.109375 243.24023438 129.109375 243.24023438 130.796875 244.55273438 C134.05076992 248.73631356 133.61710463 253.14315638 133.109375 258.24023438 C131.99717362 262.65504249 130.61713656 266.94580637 129.109375 271.24023438 C132.22937402 270.58645065 132.22937402 270.58645065 133.171875 268.20117188 C133.48125 267.3478125 133.790625 266.49445313 134.109375 265.61523438 C134.62177734 264.26751953 134.62177734 264.26751953 135.14453125 262.89257812 C135.72906524 261.28570128 136.3026113 259.67468939 136.85546875 258.05664062 C137.546875 256.17773438 137.546875 256.17773438 139.109375 253.24023438 C141.796875 252.30273438 141.796875 252.30273438 144.109375 252.24023438 C146.48176215 254.45850976 147.96765252 256.25803053 148.43945312 259.52783203 C148.50255665 262.21227626 148.45798484 264.86940881 148.359375 267.55273438 C148.34132813 268.48408203 148.32328125 269.41542969 148.3046875 270.375 C148.25772388 272.66447634 148.19206975 274.95181622 148.109375 277.24023438 C149.099375 277.24023438 150.089375 277.24023438 151.109375 277.24023438 C151.55667969 276.16902344 152.00398438 275.0978125 152.46484375 273.99414062 C153.07452252 272.59656928 153.68525477 271.19945717 154.296875 269.80273438 C154.58884766 269.09568359 154.88082031 268.38863281 155.18164062 267.66015625 C156.08984375 265.61914062 156.08984375 265.61914062 158.109375 262.24023438 C160.84765625 261.26757812 160.84765625 261.26757812 163.109375 261.24023438 C164.88617692 265.06070965 165.35581793 268.03921119 165.296875 272.24023438 C165.29042969 273.25085938 165.28398437 274.26148438 165.27734375 275.30273438 C165.12051901 278.04534382 164.72365048 280.56690749 164.109375 283.24023438 C167.58460916 280.51191622 168.69114693 276.68062329 170.171875 272.67773438 C172.85430743 265.49530194 172.85430743 265.49530194 175.109375 263.24023438 C178.64508929 263.77594866 178.64508929 263.77594866 180.109375 265.24023438 C180.19623103 266.80196182 180.21639719 268.36752782 180.20703125 269.93164062 C180.20380859 270.87587891 180.20058594 271.82011719 180.19726562 272.79296875 C180.18888672 273.78619141 180.18050781 274.77941406 180.171875 275.80273438 C180.16736328 276.79982422 180.16285156 277.79691406 180.15820312 278.82421875 C180.14637507 281.29628286 180.12989349 283.76822955 180.109375 286.24023438 C180.769375 286.57023437 181.429375 286.90023438 182.109375 287.24023438 C182.38523437 286.38171875 182.66109375 285.52320313 182.9453125 284.63867188 C184.08395264 281.314454 185.36787231 278.10168811 186.734375 274.86523438 C187.18039062 273.805625 187.62640625 272.74601562 188.0859375 271.65429688 C188.42367188 270.85765625 188.76140625 270.06101562 189.109375 269.24023438 C193.953125 270.03710938 193.953125 270.03710938 195.359375 271.86523438 C197.17154988 277.60378815 197.21376269 283.29013631 197.109375 289.24023438 C198.429375 289.57023437 199.749375 289.90023438 201.109375 290.24023438 C201.37492187 289.03625 201.64046875 287.83226562 201.9140625 286.59179688 C202.27044993 285.01618927 202.62724178 283.4406731 202.984375 281.86523438 C203.24541016 280.67414063 203.24541016 280.67414063 203.51171875 279.45898438 C203.77275391 278.31816406 203.77275391 278.31816406 204.0390625 277.15429688 C204.19616699 276.45256348 204.35327148 275.75083008 204.51513672 275.02783203 C205.109375 273.24023438 205.109375 273.24023438 207.109375 271.24023438 C209.80729836 271.41429395 210.88102484 272.01188422 212.796875 273.92773438 C215.66487642 278.98087974 215.20662677 284.59963151 215.109375 290.24023438 C217.80394754 287.91415039 218.74019114 285.97272029 219.71484375 282.57226562 C220.10639648 281.23325195 220.10639648 281.23325195 220.50585938 279.8671875 C220.76689453 278.93841797 221.02792969 278.00964844 221.296875 277.05273438 C221.56951172 276.11236328 221.84214844 275.17199219 222.12304688 274.203125 C222.79391075 271.8845253 223.45563044 269.56370789 224.109375 267.24023438 C225.759375 266.91023438 227.409375 266.58023437 229.109375 266.24023438 C232.8440123 274.35901112 233.2516121 281.35831768 233.109375 290.24023438 C234.099375 290.24023438 235.089375 290.24023438 236.109375 290.24023438 C236.29113281 289.62277344 236.47289062 289.0053125 236.66015625 288.36914062 C237.18595837 286.59759195 237.71896412 284.82817099 238.2578125 283.06054688 C238.80478145 281.24902586 239.33254773 279.43153321 239.8359375 277.60742188 C240.18785156 276.40472656 240.18785156 276.40472656 240.546875 275.17773438 C240.75183594 274.44425781 240.95679688 273.71078125 241.16796875 272.95507812 C242.109375 271.24023438 242.109375 271.24023438 244.20703125 270.49414062 C244.83480469 270.41035156 245.46257812 270.3265625 246.109375 270.24023438 C250.84034474 275.73426375 250.88052517 281.16877467 251.109375 288.24023438 C251.37492187 287.180625 251.64046875 286.12101562 251.9140625 285.02929688 C252.27047018 283.64118275 252.62726096 282.25316695 252.984375 280.86523438 C253.24541016 279.81722656 253.24541016 279.81722656 253.51171875 278.74804688 C254.8828125 273.46679687 254.8828125 273.46679687 257.109375 271.24023438 C259.609375 271.36523438 259.609375 271.36523438 262.109375 272.24023438 C264.40890651 275.5722086 264.32049834 278.52856057 264.234375 282.49023438 C264.21632813 283.56789063 264.19828125 284.64554687 264.1796875 285.75585938 C264.14488281 286.985625 264.14488281 286.985625 264.109375 288.24023438 C265.429375 288.57023437 266.749375 288.90023438 268.109375 289.24023438 C270.54005473 302.39943153 265.26598344 318.40788966 258.5859375 329.84960938 C252.81922195 337.33227442 243.00906271 340.44792125 233.953125 341.96679688 C228.14310663 342.52545249 222.3568597 342.4402555 216.53027344 342.29345703 C214.1211811 342.24049393 211.71429774 342.22990011 209.3046875 342.22070312 C193.53561369 341.98820941 178.13970068 339.48300021 162.60012817 337.0083313 C142.53221589 333.82116925 123.27331972 333.27302257 103.10864258 336.09814453 C95.21051174 337.18208825 87.3798855 337.70148572 79.4140625 337.94897461 C75.62078223 338.06823963 71.90084497 338.22228468 68.140625 338.75195312 C46.01914581 341.76650339 22.83195091 338.80590004 3.109375 328.24023438 C2.036875 327.80710937 0.964375 327.37398438 -0.140625 326.92773438 C-9.17641025 323.066806 -17.19995301 317.44771995 -25.140625 311.74023438 C-25.88481689 311.20672363 -26.62900879 310.67321289 -27.39575195 310.12353516 C-31.84575664 306.88006845 -36.01525348 303.43737905 -40.12646484 299.77587891 C-42.17787931 297.99018876 -44.3152762 296.43494605 -46.578125 294.92773438 C-55.645327 288.70186757 -64.14718002 282.02405598 -72.2421875 274.58398438 C-77.01008358 270.36460731 -82.06478385 266.51131808 -87.10595703 262.62646484 C-88.85873539 261.26500444 -90.59315776 259.88306718 -92.32421875 258.49414062 C-100.38364619 252.06545114 -107.57515367 246.7339529 -117.98681641 245.34692383 C-126.90196099 244.12920118 -126.90196099 244.12920118 -130.21484375 241.15039062 C-134.91558192 233.76351635 -135.62169391 225.88315735 -133.80078125 217.44140625 C-133.62417969 216.69439453 -133.44757813 215.94738281 -133.265625 215.17773438 C-133.03552734 214.05141602 -133.03552734 214.05141602 -132.80078125 212.90234375 C-130.70247558 203.63616183 -125.64067763 197.39061857 -118.765625 191.05273438 C-117.78190918 190.1322229 -117.78190918 190.1322229 -116.77832031 189.19311523 C-112.18403978 185.04024816 -107.8119047 182.51847013 -102.01171875 180.29492188 C-99.51577996 179.27511918 -99.51577996 179.27511918 -97.703125 175.92773438 C-95.13276081 164.26223537 -99.40836951 155.47935785 -104.890625 145.24023438 C-105.57318359 143.82097656 -105.57318359 143.82097656 -106.26953125 142.37304688 C-107.70101664 140.02071729 -107.70101664 140.02071729 -110.25390625 139.68164062 C-113.69332422 140.41028769 -115.42410111 141.89310564 -118.078125 144.17773438 C-122.61257587 148.03235753 -124.66038123 149.54802376 -130.79296875 149.45898438 C-134.87952182 149.03282614 -137.76481139 147.25346662 -140.765625 144.55273438 C-143.33239241 139.27660137 -141.98085359 134.21900398 -140.390625 128.86523438 C-138.13026568 121.14144731 -138.13787793 114.81028881 -140.890625 107.24023438 C-141.36212689 103.46821927 -141.10002732 101.65903901 -139.390625 98.24023438 C-136.77860765 95.10581356 -134.14610142 93.01075002 -130.79296875 90.73242188 C-126.89669276 87.67620539 -125.58149718 84.76819715 -124.578125 79.99023438 C-122.63295418 72.66666624 -120.11032167 68.23176037 -113.5625 64.18164062 C-111.72884727 63.14299817 -109.88994104 62.14611343 -108.00463867 61.2043457 C-102.89984739 58.58767479 -99.47809522 55.41517482 -96.890625 50.24023438 C-96.51744764 46.97770357 -96.17423656 43.71795203 -95.90429688 40.4453125 C-95.34506072 35.14494152 -94.02818238 31.5933899 -90.890625 27.24023438 C-88.41796875 25.63867188 -88.41796875 25.63867188 -85.890625 25.24023438 C-83.64453125 26.21679688 -83.64453125 26.21679688 -81.453125 27.86523438 C-80.669375 28.42726563 -79.885625 28.98929688 -79.078125 29.56835938 C-77.34868324 30.89014701 -75.64580451 32.24668498 -73.953125 33.61523438 C-69.54035184 35.95670585 -65.77013439 36.375004 -60.890625 35.24023438 C-57.83517484 33.27640824 -55.42631299 30.8244781 -52.890625 28.24023438 C-46.68611311 22.52890164 -38.7892237 20.62912845 -30.890625 18.24023438 C-30.25060547 19.07167969 -30.25060547 19.07167969 -29.59765625 19.91992188 C-24.4777333 25.85269857 -20.38153268 27.29452686 -12.6484375 28.08398438 C-11.06418572 28.17374368 -9.4774175 28.24023438 -7.890625 28.24023438 C-8.31223888 22.32415744 -8.31223888 22.32415744 -9.953125 16.67773438 C-11.30444638 13.1642988 -11.57024514 9.91018314 -10.890625 6.24023438 C-8.56414529 1.12197901 -5.54044782 -0.18704067 0 0 Z M-17.50390625 65.78710938 C-19.88540331 70.21468137 -21.9350457 74.1341776 -20.890625 79.24023438 C-17.48247873 85.91452082 -11.63754835 91.55690991 -4.515625 94.05273438 C-1.27517976 94.98177394 1.9795773 95.59086612 5.296875 96.17773438 C9.78858562 96.99759419 12.54148523 98.42347929 16.109375 101.24023438 C15.779375 103.55023438 15.449375 105.86023438 15.109375 108.24023438 C11.88525171 108.32979336 9.22248877 108.01851282 6.109375 107.24023438 C4.75083475 108.39164305 4.75083475 108.39164305 4.734375 111.49023438 C4.8849344 121.99175278 11.19067361 133.65901402 18.0234375 141.41210938 C21.37780259 144.64991351 23.30056758 146.10978157 27.984375 146.86523438 C31.40400283 146.56432498 31.40400283 146.56432498 33.109375 143.24023438 C37.34469211 126.15280049 40.67078448 107.27589023 32.109375 91.24023438 C31.66335937 90.38945312 31.21734375 89.53867188 30.7578125 88.66210938 C26.96044316 81.91594485 22.12472264 76.10907099 17.109375 70.24023438 C16.49835938 69.49386719 15.88734375 68.7475 15.2578125 67.97851562 C10.27520755 62.00621517 4.41891407 55.90895595 -3.515625 54.67773438 C-10.34483583 54.78928228 -14.12042548 60.44563368 -17.50390625 65.78710938 Z M-78.890625 70.24023438 C-79.86 70.78164062 -80.829375 71.32304687 -81.828125 71.88085938 C-91.5267154 77.64613256 -99.1516556 85.38284245 -102.890625 96.24023438 C-103.14172079 98.89737376 -103.14172079 98.89737376 -102.890625 101.24023438 C-102.560625 101.57023437 -102.230625 101.90023437 -101.890625 102.24023438 C-97.05878607 102.20320879 -92.81330788 101.65214638 -88.390625 99.67773438 C-81.93856123 97.02777961 -76.03148871 97.57172712 -69.515625 99.86523438 C-65.09710379 101.85287636 -62.93718537 103.72074689 -60.890625 108.24023438 C-59.10997187 113.63138306 -58.16035825 118.70038522 -59.890625 124.24023438 C-62.33392509 128.99972104 -65.27561731 133.45886598 -68.14257812 137.97070312 C-71.66830924 143.67978173 -73.96802278 148.57670239 -74.890625 155.24023438 C-75.055625 156.14773437 -75.220625 157.05523437 -75.390625 157.99023438 C-74.73835087 160.92546797 -73.12880774 162.30455485 -70.88671875 164.22460938 C-65.40362567 167.01444147 -58.42764449 166.45208575 -52.390625 166.49023438 C-51.57464844 166.51085937 -50.75867188 166.53148437 -49.91796875 166.55273438 C-44.46523379 166.58774391 -40.71949411 165.81646094 -35.890625 163.24023438 C-33.75533692 160.97149079 -32.92611207 159.47467744 -32.8359375 156.33789062 C-33.03649147 153.92688316 -33.42804942 151.61503185 -33.890625 149.24023438 C-34.04402344 148.39976562 -34.19742188 147.55929688 -34.35546875 146.69335938 C-36.19160999 138.19670582 -39.53347422 130.32919229 -42.82421875 122.31835938 C-45.00243072 117.01155299 -47.01883486 111.65214706 -48.98754883 106.26464844 C-50.2864747 102.72460415 -50.2864747 102.72460415 -51.94799805 99.34643555 C-53.05428894 96.87454445 -53.1597409 95.05478106 -53.19921875 92.35351562 C-53.22435547 91.41443359 -53.24949219 90.47535156 -53.27539062 89.5078125 C-53.31019726 87.55735189 -53.34151953 85.6068256 -53.36914062 83.65625 C-53.53905668 77.57657066 -54.00992092 71.71485849 -56.890625 66.24023438 C-59.78610436 64.3099148 -61.25385283 63.69052052 -64.68359375 63.79882812 C-69.83188273 64.82848592 -74.36473994 67.68310932 -78.890625 70.24023438 Z M49.109375 68.24023438 C49.62002194 72.7083951 51.06902121 74.95985265 54.109375 78.24023438 C55.33830136 79.15722319 56.56748282 80.07387018 57.796875 80.99023438 C60.4466101 83.24678298 61.66421906 84.78086128 62.234375 88.24023438 C62.45744642 93.54933422 61.02106874 98.53847366 59.8359375 103.67773438 C58.37465845 110.84271555 57.57525641 117.48655844 61.421875 123.99023438 C66.66651031 130.78104755 74.01903404 136.69110245 82.66015625 138.00976562 C83.46839844 138.08582031 84.27664063 138.161875 85.109375 138.24023438 C86.67751953 138.40072266 86.67751953 138.40072266 88.27734375 138.56445312 C91.55409899 138.85479853 94.82446183 139.06822743 98.109375 139.24023438 C98.81964844 139.28277344 99.52992188 139.3253125 100.26171875 139.36914062 C108.99745277 139.64617236 118.79972179 138.89360757 125.97265625 133.53710938 C132.69221973 126.31388575 137.20463864 116.85510038 139.109375 107.24023438 C138.61400791 98.15850447 135.76292867 90.48609481 129.109375 84.24023438 C118.98431931 76.14018983 105.37946795 75.12894206 92.921875 74.49023438 C81.95573165 73.81522612 72.06192072 71.7305761 61.59375 68.48242188 C57.33152946 67.2002186 53.26418468 66.16282953 49.109375 68.24023438 Z M216.109375 77.24023438 C215.779375 77.90023437 215.449375 78.56023437 215.109375 79.24023438 C218.29364268 88.16281776 224.32889333 96.39438788 232.55859375 101.23632812 C236.55107327 102.80764089 240.73648602 103.29665285 244.95800781 103.93017578 C251.00561434 104.95033899 255.47996066 107.3448919 260.55859375 110.81445312 C263.39145199 112.39790375 264.91777369 112.71488277 268.109375 112.24023438 C270.40828618 109.6348017 271.07671601 107.95873207 271.234375 104.49023438 C268.19770477 95.7176315 259.73973175 87.32713888 252.109375 82.24023438 C249.61835889 81.66786127 249.61835889 81.66786127 246.796875 81.30273438 C242.13153104 80.59757356 237.57964711 79.68495346 232.984375 78.61523438 C227.25691888 77.34883019 221.95768862 76.8763992 216.109375 77.24023438 Z M148.109375 100.24023438 C146.27115806 105.75488519 146.65645144 110.98396961 149.109375 116.24023438 C151.84680594 119.21230226 153.41359202 120.13521053 157.421875 120.74023438 C164.81104813 119.73831259 169.3655547 116.58538341 173.98046875 110.82617188 C176.30825177 107.55599919 176.42875377 105.23246898 176.109375 101.24023438 C175.23832124 98.85571638 175.23832124 98.85571638 173.109375 97.24023438 C171.06897529 96.54341075 169.06324842 96.05599686 166.94921875 95.63476562 C165.109375 95.24023438 165.109375 95.24023438 163.109375 94.24023438 C156.19962699 93.42043376 152.62447992 94.86137025 148.109375 100.24023438 Z M-86.890625 238.24023438 C-87.220625 239.23023438 -87.550625 240.22023438 -87.890625 241.24023438 C-86.65549218 243.47047568 -86.65549218 243.47047568 -84.890625 245.24023438 C-84.230625 245.24023438 -83.570625 245.24023438 -82.890625 245.24023438 C-82.66044678 245.82812744 -82.43026855 246.41602051 -82.19311523 247.02172852 C-80.54668557 249.8260596 -78.7704528 250.96349232 -76.05078125 252.73632812 C-74.57834961 253.69829102 -74.57834961 253.69829102 -73.07617188 254.6796875 C-71.53026367 255.6687207 -71.53026367 255.6687207 -69.953125 256.67773438 C-68.95732422 257.33322266 -67.96152344 257.98871094 -66.93554688 258.6640625 C-54.84967057 266.89073029 -54.84967057 266.89073029 -40.890625 269.24023438 C-36.87209526 266.7743184 -35.32575735 264.65943046 -33.890625 260.24023438 C-33.46624166 257.28958207 -33.46624166 257.28958207 -33.453125 254.24023438 C-33.41316406 253.22960937 -33.37320313 252.21898437 -33.33203125 251.17773438 C-34.09790568 247.15019892 -35.74491099 245.80340875 -38.890625 243.24023438 C-51.1877712 235.98892806 -74.43013122 227.84709251 -86.890625 238.24023438 Z M0.109375 288.24023438 C0.69087762 294.14871637 4.03036283 296.33264993 8.3515625 300.01367188 C15.63262301 306.35229721 15.63262301 306.35229721 24.671875 308.61523438 C25.80625 308.49148438 26.940625 308.36773437 28.109375 308.24023438 C28.109375 302.36514466 25.05652826 299.35534914 21.2421875 295.29492188 C16.29846255 290.53228575 11.90873076 288.08699599 4.921875 288.17773438 C4.02082031 288.18675781 3.11976563 288.19578125 2.19140625 288.20507812 C1.16080078 288.22248047 1.16080078 288.22248047 0.109375 288.24023438 Z " fill="#FEFEFE" transform="translate(179.890625,62.759765625)"/>
<path d="M0 0 C4.09707045 0.97579219 8.1635779 2.06125905 12.22265625 3.18383789 C18.7520407 4.98916995 24.89946054 6.06192517 31.67431641 6.2902832 C46.1868469 6.79196163 60.28438785 8.89463797 71.27734375 19.14453125 C76.33644774 24.59367954 78.72218213 31.11054985 79.25 38.5 C78.97705431 42.32123969 78.18502121 45.37087253 77 49 C76.67 49 76.34 49 76 49 C76.10699219 48.23816406 76.21398437 47.47632813 76.32421875 46.69140625 C77.14347417 39.63523857 76.9945659 34.4632714 74 28 C73.5978125 27.06027344 73.5978125 27.06027344 73.1875 26.1015625 C69.99123494 19.56634197 64.32930346 15.6160152 57.5625 13.25 C56.05433546 12.78958186 54.52993353 12.38190122 53 12 C52.38584229 11.83661133 51.77168457 11.67322266 51.13891602 11.50488281 C44.71610491 9.91241435 38.40205933 9.58779986 31.8125 9.25 C21.84584961 8.63730191 12.72769835 7.039076 3.20629883 4.03222656 C-2.10119167 2.37264213 -6.43084722 1.70417895 -12 2 C-12.33 3.32 -12.66 4.64 -13 6 C-13.1875 3.625 -13.1875 3.625 -13 1 C-8.5087043 -1.99419714 -5.1842906 -0.95849094 0 0 Z " fill="#ECEDEE" transform="translate(241,129)"/>
<path d="M0 0 C4.14729018 1.75382918 7.40247786 4.57338978 10.875 7.375 C15.13702335 10.80294996 19.43298808 13.97978061 24 17 C25.94952969 18.48433157 27.88640775 19.98537962 29.8125 21.5 C45.66072053 33.81627802 61.46980345 44.22927241 80 52 C80 52.99 80 53.98 80 55 C60.46425177 48.44415869 43.0776548 36.16372799 27.77075195 22.54003906 C25.71662293 20.75354439 23.57751225 19.19615269 21.3125 17.6875 C17.14796951 14.82923528 13.0828344 11.86858276 9.0625 8.8125 C8.50667236 8.39637451 7.95084473 7.98024902 7.37817383 7.55151367 C4.42717928 5.29247646 2.05129013 3.10909828 0 0 Z " fill="#E6E6E7" transform="translate(112,340)"/>
<path d="M0 0 C0.61875 0.680625 1.2375 1.36125 1.875 2.0625 C12.57998764 12.64652733 22.4721006 14.23927985 37 15 C37.71027344 15.04253906 38.42054688 15.08507812 39.15234375 15.12890625 C49.25690819 15.44934698 58.57661173 13.70265562 67 8 C67 8.99 67 9.98 67 11 C53.97927076 20.02494989 36.65483332 18.98457172 21.57763672 16.62011719 C12.46294078 14.82476966 5.30402807 9.60244024 0 2 C0 1.34 0 0.68 0 0 Z " fill="#EEEFF0" transform="translate(241,186)"/>
<path d="M0 0 C7.85160269 0.14814345 12.70918863 3.53907732 19 8 C19.81855469 8.56976563 20.63710937 9.13953125 21.48046875 9.7265625 C25.51539638 12.62599722 25.51539638 12.62599722 27 14 C27 14.66 27 15.32 27 16 C27.721875 16.226875 28.44375 16.45375 29.1875 16.6875 C32.57004597 18.26602145 34.37770302 20.34721119 37 23 C38.91767024 24.62781995 40.85522043 26.23252733 42.8125 27.8125 C43.78832031 28.60269531 44.76414063 29.39289063 45.76953125 30.20703125 C46.50558594 30.79871094 47.24164063 31.39039063 48 32 C47.505 32.99 47.505 32.99 47 34 C46.32195312 33.443125 45.64390625 32.88625 44.9453125 32.3125 C41.96714379 29.87056665 38.98379654 27.43505235 36 25 C35.18660156 24.33097656 34.37320313 23.66195313 33.53515625 22.97265625 C24.35216024 15.50096732 14.86972727 7.8309899 4 3 C2.66384587 2.33900502 1.32983085 1.67362611 0 1 C0 0.67 0 0.34 0 0 Z " fill="#E8E8EA" transform="translate(64,306)"/>
<path d="M0 0 C0.99 0.66 1.98 1.32 3 2 C4.155 2.28875 5.31 2.5775 6.5 2.875 C10 4 10 4 11.9375 5.625 C13.58091231 9.29850988 13.38286042 11.97996557 13 16 C11.4765625 17.74609375 11.4765625 17.74609375 10 19 C10.09539062 18.31292969 10.19078125 17.62585938 10.2890625 16.91796875 C10.39992188 16.01691406 10.51078125 15.11585938 10.625 14.1875 C10.74101562 13.29417969 10.85703125 12.40085938 10.9765625 11.48046875 C11.23500743 8.74309609 11.23500743 8.74309609 9 6 C7.11289356 5.24511022 7.11289356 5.24511022 5 4.875 C2.77125366 4.40794654 1.04443699 4.02221849 -1 3 C-5.72102578 2.52789742 -8.65955345 2.26635908 -12.4375 5.3125 C-16.04391072 9.0948332 -16.12166667 11.6583329 -16.0625 16.6875 C-16.05347656 17.68136719 -16.04445313 18.67523438 -16.03515625 19.69921875 C-16.02355469 20.45847656 -16.01195312 21.21773437 -16 22 C-18.84000604 17.73999095 -18.63091437 14.00058053 -18 9 C-14.10719342 1.07020883 -8.48757935 -1.22386444 0 0 Z " fill="#EBEBED" transform="translate(344,155)"/>
<path d="M0 0 C0.75 1.75 0.75 1.75 1 4 C-1.91158579 8.12474653 -5.22528595 8.88960138 -10 10 C-12.77804553 10.26376854 -15.52361275 10.28533832 -18.3125 10.25 C-19.05363037 10.24613281 -19.79476074 10.24226562 -20.55834961 10.23828125 C-26.19903599 10.14969374 -31.54602126 9.50084919 -37 8 C-36.34 7.34 -35.68 6.68 -35 6 C-33.35615867 6.1948884 -31.71261939 6.4041846 -30.08203125 6.68945312 C-26.23838669 7.26275471 -22.37939073 7.22548568 -18.5 7.25 C-17.68402344 7.270625 -16.86804688 7.29125 -16.02734375 7.3125 C-10.5855519 7.34743927 -6.80851232 6.60173744 -2 4 C-0.5181036 1.9648239 -0.5181036 1.9648239 0 0 Z " fill="#EBEBED" transform="translate(146,221)"/>
<path d="M0 0 C3.01144373 0.28680417 5.9999182 0.62041648 9 1 C10.11375 1.11408203 10.11375 1.11408203 11.25 1.23046875 C20.83494405 2.68532633 27.51844073 9.77248324 33.13671875 17.23828125 C34 19 34 19 33 22 C32.64808594 21.50371094 32.29617188 21.00742188 31.93359375 20.49609375 C24.76323215 10.2422241 24.76323215 10.2422241 14.2578125 4.4375 C13.22398437 4.293125 12.19015625 4.14875 11.125 4 C7.11535763 3.43724318 3.70852807 2.64215265 0 1 C0 0.67 0 0.34 0 0 Z " fill="#EAEAEB" transform="translate(415,141)"/>
<path d="M0 0 C1.12588014 0.95729916 2.2506715 1.91587895 3.375 2.875 C4.00148437 3.40867187 4.62796875 3.94234375 5.2734375 4.4921875 C6.55836651 5.61432007 7.79371975 6.79371975 9 8 C11.15383697 8.40809543 13.32447547 8.73046599 15.5 9 C21.77777778 9.77777778 21.77777778 9.77777778 24 12 C17.96332741 13.6060872 12.74622967 12.17131486 7 10 C4.37599796 8.17629433 2.97418657 6.57741024 1 4 C1 3.34 1 2.68 1 2 C0.34 1.67 -0.32 1.34 -1 1 C-0.67 0.67 -0.34 0.34 0 0 Z " fill="#E8E8EA" transform="translate(148,81)"/>
<path d="M0 0 C0 0.33 0 0.66 0 1 C-1.2375 1.37125 -2.475 1.7425 -3.75 2.125 C-12.02219657 4.88239886 -19.92963073 8.89362219 -27 14 C-27.33 13.34 -27.66 12.68 -28 12 C-25.04247078 10.18618538 -22.08384147 8.37417304 -19.125 6.5625 C-18.28324219 6.04623047 -17.44148438 5.52996094 -16.57421875 4.99804688 C-15.36572266 4.25844727 -15.36572266 4.25844727 -14.1328125 3.50390625 C-13.38918457 3.04830322 -12.64555664 2.5927002 -11.87939453 2.12329102 C-7.69276745 -0.37900454 -4.85298031 -0.07827388 0 0 Z " fill="#EBEBEC" transform="translate(118,126)"/>
<path d="M0 0 C5.33673375 3.93546846 10.51165165 8.0194059 15.60546875 12.265625 C18.00499252 14.00361611 20.21232911 15.02951422 23 16 C23 16.33 23 16.66 23 17 C18.75776898 17.3636198 16.41831915 16.5393228 13 14 C13 13.34 13 12.68 13 12 C12.26394531 11.7525 11.52789062 11.505 10.76953125 11.25 C7.73646059 9.88105415 6.00209791 8.37126415 3.6875 6 C2.99011719 5.29875 2.29273438 4.5975 1.57421875 3.875 C0 2 0 2 0 0 Z " fill="#EAEBEB" transform="translate(180,355)"/>
<path d="M0 0 C0.33 0.66 0.66 1.32 1 2 C2.31647119 2.69937532 3.65022151 3.36729133 5 4 C5.33 4.33 5.66 4.66 6 5 C11.32440387 5.4176003 14.34451085 4.49014536 19 2 C19.66 2.33 20.32 2.66 21 3 C14.70108696 8.13858696 14.70108696 8.13858696 9.375 8.0625 C8.14910156 8.04896484 8.14910156 8.04896484 6.8984375 8.03515625 C5.95871094 8.01775391 5.95871094 8.01775391 5 8 C4.731875 7.360625 4.46375 6.72125 4.1875 6.0625 C3.11332248 3.66868314 3.11332248 3.66868314 0 3 C0 2.01 0 1.02 0 0 Z " fill="#ECEDEE" transform="translate(328,177)"/>
<path d="M0 0 C1.32 0.33 2.64 0.66 4 1 C4 1.99 4 2.98 4 4 C3.01 3.67 2.02 3.34 1 3 C0.67 2.01 0.34 1.02 0 0 Z " fill="#EEEEEE" transform="translate(180,124)"/>
<path d="M0 0 C0.66 0.33 1.32 0.66 2 1 C2 1.66 2 2.32 2 3 C1.01 3 0.02 3 -1 3 C-0.67 2.01 -0.34 1.02 0 0 Z " fill="#EDEDEE" transform="translate(205,367)"/>
<path d="M0 0 C2 3 2 3 2 5 C1.34 5 0.68 5 0 5 C0 3.35 0 1.7 0 0 Z " fill="#EFEFF0" transform="translate(211,165)"/>
<path d="M0 0 C0.99 0.99 1.98 1.98 3 3 C2.01 2.67 1.02 2.34 0 2 C0 1.34 0 0.68 0 0 Z " fill="#E9EAEB" transform="translate(200,360)"/>
<path d="M0 0 C1.32 0.33 2.64 0.66 4 1 C3.01 1.495 3.01 1.495 2 2 C1.34 1.34 0.68 0.68 0 0 Z " fill="#EAEBEB" transform="translate(182,352)"/>
<path d="M0 0 C0.66 0 1.32 0 2 0 C1.67 0.99 1.34 1.98 1 3 C0.67 2.01 0.34 1.02 0 0 Z " fill="#F1F1F3" transform="translate(301,146)"/>
<path d="M0 0 C0.99 0.495 0.99 0.495 2 1 C1.67 1.66 1.34 2.32 1 3 C0.67 2.01 0.34 1.02 0 0 Z " fill="#E7E7E9" transform="translate(263,290)"/>
<path d="M0 0 C0.66 0 1.32 0 2 0 C2 0.66 2 1.32 2 2 C1.34 2 0.68 2 0 2 C0 1.34 0 0.68 0 0 Z " fill="#E8EAEC" transform="translate(333,274)"/>
<path d="M0 0 C0.99 0.495 0.99 0.495 2 1 C1.67 1.66 1.34 2.32 1 3 C0.67 2.01 0.34 1.02 0 0 Z " fill="#ECEDED" transform="translate(403,147)"/>
<path d="M0 0 C1 4 1 4 1 4 Z " fill="#F2F3F4" transform="translate(167,134)"/>
<path d="M0 0 C0.99 0.495 0.99 0.495 2 1 C1.01 1.495 1.01 1.495 0 2 C0 1.34 0 0.68 0 0 Z " fill="#FFFFFF" transform="translate(427,161)"/>
<path d="" fill="#FFFFFF" transform="translate(0,0)"/>
<path d="M0 0 C2 1 2 1 2 1 Z " fill="#FFFFFF" transform="translate(152,265)"/>
<path d="" fill="#F3F4F6" transform="translate(0,0)"/>
<path d="" fill="#EDEDEF" transform="translate(0,0)"/>
<path d="" fill="#EDEDEF" transform="translate(0,0)"/>
<path d="" fill="#F1F2F4" transform="translate(0,0)"/>
<path d="" fill="#F2F2F5" transform="translate(0,0)"/>
</svg>